<mxfile host="app.diagrams.net" agent="Mozilla/5.0 (Windows NT 10.0; Win64; x64) AppleWebKit/537.36 (KHTML, like Gecko) Chrome/135.0.0.0 Safari/537.36" version="26.2.12">
  <diagram name="PÃ¡gina-1" id="IlDYEZVzDNYxJnUhvPW0">
    <mxGraphModel dx="1228" dy="629" grid="1" gridSize="10" guides="1" tooltips="1" connect="1" arrows="1" fold="1" page="1" pageScale="1" pageWidth="827" pageHeight="1169" math="0" shadow="0">
      <root>
        <mxCell id="0" />
        <mxCell id="1" parent="0" />
        <mxCell id="2" value="User-Reported Incidents Waze" style="whiteSpace=wrap;strokeWidth=2;" parent="1" vertex="1">
          <mxGeometry x="293" y="8" width="260" height="78" as="geometry" />
        </mxCell>
        <mxCell id="3" value="User" style="rounded=1;arcSize=20;strokeWidth=2" parent="1" vertex="1">
          <mxGeometry x="156" y="158" width="62" height="54" as="geometry" />
        </mxCell>
        <mxCell id="4" value="Waze System" style="rounded=1;arcSize=20;strokeWidth=2" parent="1" vertex="1">
          <mxGeometry x="706" y="158" width="123" height="54" as="geometry" />
        </mxCell>
        <mxCell id="5" value="Incident Report" style="rounded=1;arcSize=20;strokeWidth=2" parent="1" vertex="1">
          <mxGeometry x="8" y="285" width="141" height="54" as="geometry" />
        </mxCell>
        <mxCell id="6" value="Incident Status Update" style="rounded=1;arcSize=20;strokeWidth=2" parent="1" vertex="1">
          <mxGeometry x="199" y="285" width="194" height="54" as="geometry" />
        </mxCell>
        <mxCell id="7" value="Verification of Incident" style="rounded=1;arcSize=20;strokeWidth=2" parent="1" vertex="1">
          <mxGeometry x="442" y="285" width="195" height="54" as="geometry" />
        </mxCell>
        <mxCell id="8" value="Incident Database" style="rounded=1;arcSize=20;strokeWidth=2" parent="1" vertex="1">
          <mxGeometry x="688" y="285" width="159" height="54" as="geometry" />
        </mxCell>
        <mxCell id="9" value="Users Nearby" style="rounded=1;arcSize=20;strokeWidth=2" parent="1" vertex="1">
          <mxGeometry x="897" y="285" width="123" height="54" as="geometry" />
        </mxCell>
        <mxCell id="10" value="Valid Incident" style="rounded=1;arcSize=20;strokeWidth=2" parent="1" vertex="1">
          <mxGeometry x="380" y="411" width="128" height="54" as="geometry" />
        </mxCell>
        <mxCell id="11" value="Invalid Incident" style="rounded=1;arcSize=20;strokeWidth=2" parent="1" vertex="1">
          <mxGeometry x="566" y="411" width="141" height="54" as="geometry" />
        </mxCell>
        <mxCell id="12" value="Close Incident" style="rounded=1;arcSize=20;strokeWidth=2" parent="1" vertex="1">
          <mxGeometry x="378" y="538" width="131" height="54" as="geometry" />
        </mxCell>
        <mxCell id="13" value="Feedback to User" style="rounded=1;arcSize=20;strokeWidth=2" parent="1" vertex="1">
          <mxGeometry x="559" y="538" width="154" height="54" as="geometry" />
        </mxCell>
        <mxCell id="14" value="Reports" style="curved=1;startArrow=none;endArrow=block;exitX=0.03;exitY=1;entryX=0.5;entryY=0.01;" parent="1" source="2" target="3" edge="1">
          <mxGeometry relative="1" as="geometry">
            <Array as="points">
              <mxPoint x="187" y="122" />
            </Array>
          </mxGeometry>
        </mxCell>
        <mxCell id="15" value="Handles" style="curved=1;startArrow=none;endArrow=block;exitX=1;exitY=0.86;entryX=0.5;entryY=0.01;" parent="1" source="2" target="4" edge="1">
          <mxGeometry relative="1" as="geometry">
            <Array as="points">
              <mxPoint x="767" y="122" />
            </Array>
          </mxGeometry>
        </mxCell>
        <mxCell id="16" value="Submits" style="curved=1;startArrow=none;endArrow=block;exitX=0;exitY=0.84;entryX=0.5;entryY=0;" parent="1" source="3" target="5" edge="1">
          <mxGeometry relative="1" as="geometry">
            <Array as="points">
              <mxPoint x="78" y="249" />
            </Array>
          </mxGeometry>
        </mxCell>
        <mxCell id="17" value="Receives Feedback" style="curved=1;startArrow=none;endArrow=block;exitX=1;exitY=0.84;entryX=0.5;entryY=0;" parent="1" source="3" target="6" edge="1">
          <mxGeometry relative="1" as="geometry">
            <Array as="points">
              <mxPoint x="296" y="249" />
            </Array>
          </mxGeometry>
        </mxCell>
        <mxCell id="18" value="Processes" style="curved=1;startArrow=none;endArrow=block;exitX=0;exitY=0.82;entryX=0.5;entryY=0;" parent="1" source="4" target="7" edge="1">
          <mxGeometry relative="1" as="geometry">
            <Array as="points">
              <mxPoint x="540" y="249" />
            </Array>
          </mxGeometry>
        </mxCell>
        <mxCell id="19" value="Updates" style="curved=1;startArrow=none;endArrow=block;exitX=0.5;exitY=1.01;entryX=0.5;entryY=0;" parent="1" source="4" target="8" edge="1">
          <mxGeometry relative="1" as="geometry">
            <Array as="points" />
          </mxGeometry>
        </mxCell>
        <mxCell id="20" value="Notifies" style="curved=1;startArrow=none;endArrow=block;exitX=1;exitY=0.88;entryX=0.5;entryY=0;" parent="1" source="4" target="9" edge="1">
          <mxGeometry relative="1" as="geometry">
            <Array as="points">
              <mxPoint x="958" y="249" />
            </Array>
          </mxGeometry>
        </mxCell>
        <mxCell id="21" value="Confirms" style="curved=1;startArrow=none;endArrow=block;exitX=0.29;exitY=1;entryX=0.5;entryY=0;" parent="1" source="7" target="10" edge="1">
          <mxGeometry relative="1" as="geometry">
            <Array as="points">
              <mxPoint x="444" y="375" />
            </Array>
          </mxGeometry>
        </mxCell>
        <mxCell id="22" value="Rejects" style="curved=1;startArrow=none;endArrow=block;exitX=0.71;exitY=1;entryX=0.5;entryY=0;" parent="1" source="7" target="11" edge="1">
          <mxGeometry relative="1" as="geometry">
            <Array as="points">
              <mxPoint x="637" y="375" />
            </Array>
          </mxGeometry>
        </mxCell>
        <mxCell id="23" value="Triggers" style="curved=1;startArrow=none;endArrow=block;exitX=0.5;exitY=1;entryX=0.5;entryY=-0.01;" parent="1" source="10" target="12" edge="1">
          <mxGeometry relative="1" as="geometry">
            <Array as="points" />
          </mxGeometry>
        </mxCell>
        <mxCell id="24" value="Provides" style="curved=1;startArrow=none;endArrow=block;exitX=0.5;exitY=1;entryX=0.5;entryY=-0.01;" parent="1" source="11" target="13" edge="1">
          <mxGeometry relative="1" as="geometry">
            <Array as="points" />
          </mxGeometry>
        </mxCell>
        <mxCell id="0LrheQoJdD5HbSpLLnFE-36" value="req ReqDiagram" style="shape=umlFrame;whiteSpace=wrap;html=1;pointerEvents=0;width=114;height=30;" parent="1" vertex="1">
          <mxGeometry x="990" y="460" width="1010" height="500" as="geometry" />
        </mxCell>
        <mxCell id="0LrheQoJdD5HbSpLLnFE-37" value="&lt;p style=&quot;margin:0px;margin-top:4px;text-align:center;&quot;&gt;&lt;i&gt;&amp;lt;&amp;lt;requirement&amp;gt;&amp;gt;&lt;/i&gt;&lt;br&gt;&lt;b&gt;User-Reported Incidents&lt;/b&gt;&lt;/p&gt;&lt;hr size=&quot;1&quot; style=&quot;border-style:solid;&quot;&gt;&lt;p style=&quot;margin:0px;margin-left:4px;&quot;&gt;Id=&quot;URI-1&quot;&lt;/p&gt;&lt;p style=&quot;margin:0px;margin-left:4px;&quot;&gt;text=&quot;The system should be able to register different vehicle type enumerates.&quot;&lt;/p&gt;" style="verticalAlign=top;align=left;overflow=fill;html=1;whiteSpace=wrap;" parent="1" vertex="1">
          <mxGeometry x="1420" y="520" width="180" height="120" as="geometry" />
        </mxCell>
        <mxCell id="0LrheQoJdD5HbSpLLnFE-38" style="edgeStyle=orthogonalEdgeStyle;rounded=0;orthogonalLoop=1;jettySize=auto;html=1;exitX=1;exitY=0.5;exitDx=0;exitDy=0;entryX=0;entryY=0.5;entryDx=0;entryDy=0;endArrow=circlePlus;endFill=0;" parent="1" source="0LrheQoJdD5HbSpLLnFE-39" target="0LrheQoJdD5HbSpLLnFE-37" edge="1">
          <mxGeometry relative="1" as="geometry" />
        </mxCell>
        <mxCell id="0LrheQoJdD5HbSpLLnFE-39" value="&lt;p style=&quot;margin:0px;margin-top:4px;text-align:center;&quot;&gt;&lt;i&gt;&amp;lt;&amp;lt;NF requirement&amp;gt;&amp;gt;&lt;/i&gt;&lt;br&gt;&lt;b&gt;Performance&lt;/b&gt;&lt;/p&gt;&lt;hr size=&quot;1&quot; style=&quot;border-style:solid;&quot;&gt;&lt;p style=&quot;margin:0px;margin-left:4px;&quot;&gt;Id=&quot;URI-NF-1&quot;&lt;/p&gt;&lt;p style=&quot;margin:0px;margin-left:4px;&quot;&gt;text=&quot;The system should be able to register different vehicle type enumerates in reasonable time (3 seconds).&quot;&lt;/p&gt;" style="verticalAlign=top;align=left;overflow=fill;html=1;whiteSpace=wrap;" parent="1" vertex="1">
          <mxGeometry x="1090" y="520" width="180" height="120" as="geometry" />
        </mxCell>
        <mxCell id="0LrheQoJdD5HbSpLLnFE-40" style="edgeStyle=orthogonalEdgeStyle;rounded=0;orthogonalLoop=1;jettySize=auto;html=1;exitX=0.5;exitY=0;exitDx=0;exitDy=0;entryX=0.5;entryY=1;entryDx=0;entryDy=0;endArrow=circlePlus;endFill=0;" parent="1" source="0LrheQoJdD5HbSpLLnFE-41" target="0LrheQoJdD5HbSpLLnFE-37" edge="1">
          <mxGeometry relative="1" as="geometry" />
        </mxCell>
        <mxCell id="0LrheQoJdD5HbSpLLnFE-41" value="&lt;p style=&quot;margin:0px;margin-top:4px;text-align:center;&quot;&gt;&lt;i&gt;&amp;lt;&amp;lt;requirement&amp;gt;&amp;gt;&lt;/i&gt;&lt;br&gt;&lt;b&gt;Report Incident&lt;/b&gt;&lt;/p&gt;&lt;hr size=&quot;1&quot; style=&quot;border-style:solid;&quot;&gt;&lt;p style=&quot;margin:0px;margin-left:4px;&quot;&gt;Id=&quot;URI-1.1&quot;&lt;/p&gt;&lt;p style=&quot;margin:0px;margin-left:4px;&quot;&gt;text=&quot;The system should receive the user input on the incident report.&quot;&lt;/p&gt;" style="verticalAlign=top;align=left;overflow=fill;html=1;whiteSpace=wrap;" parent="1" vertex="1">
          <mxGeometry x="1090" y="700" width="180" height="120" as="geometry" />
        </mxCell>
        <mxCell id="0LrheQoJdD5HbSpLLnFE-42" style="edgeStyle=orthogonalEdgeStyle;rounded=0;orthogonalLoop=1;jettySize=auto;html=1;exitX=0.5;exitY=0;exitDx=0;exitDy=0;endArrow=circlePlus;endFill=0;" parent="1" source="0LrheQoJdD5HbSpLLnFE-43" edge="1">
          <mxGeometry relative="1" as="geometry">
            <mxPoint x="1510" y="640" as="targetPoint" />
            <Array as="points">
              <mxPoint x="1400" y="671" />
              <mxPoint x="1511" y="671" />
              <mxPoint x="1511" y="640" />
            </Array>
          </mxGeometry>
        </mxCell>
        <mxCell id="0LrheQoJdD5HbSpLLnFE-43" value="&lt;p style=&quot;margin:0px;margin-top:4px;text-align:center;&quot;&gt;&lt;i&gt;&amp;lt;&amp;lt;requirement&amp;gt;&amp;gt;&lt;/i&gt;&lt;br&gt;&lt;b&gt;Verify Incident Status&lt;/b&gt;&lt;/p&gt;&lt;hr size=&quot;1&quot; style=&quot;border-style:solid;&quot;&gt;&lt;p style=&quot;margin:0px;margin-left:4px;&quot;&gt;Id=&quot;URI-1.2&quot;&lt;/p&gt;&lt;p style=&quot;margin:0px;margin-left:4px;&quot;&gt;text=&quot;The system should verify the incident report before notifying users.&quot;&lt;/p&gt;" style="verticalAlign=top;align=left;overflow=fill;html=1;whiteSpace=wrap;" parent="1" vertex="1">
          <mxGeometry x="1310" y="700" width="180" height="120" as="geometry" />
        </mxCell>
        <mxCell id="0LrheQoJdD5HbSpLLnFE-44" style="edgeStyle=orthogonalEdgeStyle;rounded=0;orthogonalLoop=1;jettySize=auto;html=1;exitX=0.5;exitY=0;exitDx=0;exitDy=0;endArrow=circlePlus;endFill=0;" parent="1" source="0LrheQoJdD5HbSpLLnFE-45" target="0LrheQoJdD5HbSpLLnFE-37" edge="1">
          <mxGeometry relative="1" as="geometry" />
        </mxCell>
        <mxCell id="0LrheQoJdD5HbSpLLnFE-45" value="&lt;p style=&quot;margin:0px;margin-top:4px;text-align:center;&quot;&gt;&lt;i&gt;&amp;lt;&amp;lt;requirement&amp;gt;&amp;gt;&lt;/i&gt;&lt;br&gt;&lt;b&gt;Update Incident Status&lt;/b&gt;&lt;/p&gt;&lt;hr size=&quot;1&quot; style=&quot;border-style:solid;&quot;&gt;&lt;p style=&quot;margin:0px;margin-left:4px;&quot;&gt;Id=&quot;URI-1.3&quot;&lt;/p&gt;&lt;p style=&quot;margin:0px;margin-left:4px;&quot;&gt;text=&quot;The system should update the incident status on the particular location.&quot;&lt;/p&gt;" style="verticalAlign=top;align=left;overflow=fill;html=1;whiteSpace=wrap;" parent="1" vertex="1">
          <mxGeometry x="1530" y="700" width="180" height="120" as="geometry" />
        </mxCell>
        <mxCell id="RuquudHr51e7roZZnxGD-27" style="edgeStyle=orthogonalEdgeStyle;rounded=0;orthogonalLoop=1;jettySize=auto;html=1;entryX=0.5;entryY=1;entryDx=0;entryDy=0;endArrow=circlePlus;endFill=0;" edge="1" parent="1" source="RuquudHr51e7roZZnxGD-24" target="0LrheQoJdD5HbSpLLnFE-37">
          <mxGeometry relative="1" as="geometry">
            <Array as="points">
              <mxPoint x="1840" y="670" />
              <mxPoint x="1510" y="670" />
            </Array>
          </mxGeometry>
        </mxCell>
        <mxCell id="RuquudHr51e7roZZnxGD-24" value="&lt;p style=&quot;margin:0px;margin-top:4px;text-align:center;&quot;&gt;&lt;i&gt;&amp;lt;&amp;lt;requirement&amp;gt;&amp;gt;&lt;/i&gt;&lt;br&gt;&lt;b&gt;Notify Users Nearby&lt;/b&gt;&lt;/p&gt;&lt;hr size=&quot;1&quot; style=&quot;border-style:solid;&quot;&gt;&lt;p style=&quot;margin:0px;margin-left:4px;&quot;&gt;Id=&quot;URI-1.4&quot;&lt;/p&gt;&lt;p style=&quot;margin:0px;margin-left:4px;&quot;&gt;text=&quot;The system should notify users nearby the location that the incident occurred.&quot;&lt;/p&gt;" style="verticalAlign=top;align=left;overflow=fill;html=1;whiteSpace=wrap;" vertex="1" parent="1">
          <mxGeometry x="1750" y="700" width="180" height="120" as="geometry" />
        </mxCell>
      </root>
    </mxGraphModel>
  </diagram>
</mxfile>
